<svg t="1565233334752" class="icon" viewBox="0 0 1175 1024" version="1.1" xmlns="http://www.w3.org/2000/svg" p-id="1077" width="200" height="200"><path d="M1118.814815 227.555556h-417.185185c-20.859259 0-37.925926-17.066667-37.925926-37.925926s17.066667-37.925926 37.925926-37.925926h398.222222c41.718519 0 75.851852-34.133333 75.851852-75.851852s-34.133333-75.851852-75.851852-75.851852h-441.837037l-146.014815 146.014815v81.540741h-81.540741l-202.903703 202.903703v100.503704h-87.22963c-13.274074-22.755556-37.925926-37.925926-64.474074-37.925926-41.718519 0-75.851852 34.133333-75.851852 75.851852v303.407407c0 41.718519 34.133333 75.851852 75.851852 75.851852 28.444444 0 53.096296-15.17037 64.474074-37.925926h87.22963v56.888889c0 32.237037 24.651852 56.888889 56.888888 56.888889h834.370371c32.237037 0 56.888889-24.651852 56.888889-56.888889v-682.666667c0-32.237037-24.651852-56.888889-56.888889-56.888888z m-530.962963 132.74074c41.718519 0 75.851852 34.133333 75.851852 75.851852s-34.133333 75.851852-75.851852 75.851852-75.851852-34.133333-75.851852-75.851852 34.133333-75.851852 75.851852-75.851852z m436.148148 512h-512v-227.555555h512v227.555555z" p-id="1078"></path></svg>