<svg t="1565233416548" class="icon" viewBox="0 0 1024 1024" version="1.1" xmlns="http://www.w3.org/2000/svg" p-id="1837" width="200" height="200"><path d="M402.935 179.03c-160.023 0-290.205 112.29-290.205 250.311 0 72.725 36.611 141.782 100.441 189.467l3.511 2.622-1.404 4.16c-5.467 16.145-15.36 57.943-21.71 77.198-0.728 2.205-1.503 4.442-1.503 6.767a16.01 16.01 0 0 0 15.994 15.988h0.01c3.578 0 6.819-1.622 9.898-3.443 20.316-12.025 71.892-45.787 88.458-54.754l2.174-1.175 2.377 0.681c29.543 8.504 60.48 12.81 92.229 12.81 8.894 0 17.788-0.467 26.662-1.175-9.534-23.364-14.777-48.455-14.777-74.601 0-124.238 117.107-225.309 261.041-225.309 3.688 0 7.344 0.11 10.996 0.24C659.94 264.944 542.885 179.03 402.935 179.03z m-91.22 205.601c-19.235 0-34.88-14.594-34.88-32.534s15.645-32.528 34.88-32.528c19.229 0 34.88 14.594 34.88 32.528s-15.651 32.534-34.88 32.534z m187.084 0c-19.229 0-34.88-14.594-34.88-32.534s15.646-32.528 34.88-32.528 34.88 14.594 34.88 32.528-15.646 32.534-34.88 32.534z" fill="#2C2C2C" p-id="1838"></path><path d="M911.291 605.873c0-111.932-105.492-202.99-235.165-202.99-129.678 0-235.175 91.058-235.175 202.99s105.502 202.984 235.68 202.984c24.248 0 48.392-3.277 71.756-9.737l2.934-0.81 2.398 1.872c10.381 8.124 39.8 28.216 54.473 36.762 5.092 3.324 6.928 4.504 11.094 4.504h0.015c1.69 0 3.36-0.27 4.973-0.795a15.864 15.864 0 0 0 9.253-7.953c1.92-3.802 1.711-7.589 0.92-12.171a1494.158 1494.158 0 0 0-7.739-54.15l-0.863-3.844 3.167-2.34c52.289-38.646 82.28-94.888 82.28-154.322zM602.252 573.65c-15.39 0-27.91-11.776-27.91-26.246 0-14.465 12.52-26.24 27.91-26.24 15.401 0 27.931 11.775 27.931 26.24 0 14.47-12.53 26.246-27.93 26.246z m137.87 0.14h-0.02c-7.495-0.005-14.543-2.762-19.833-7.76-5.253-4.967-8.14-11.563-8.14-18.564 0.01-14.521 12.567-26.318 27.988-26.318 7.516 0.005 14.564 2.762 19.848 7.76 5.254 4.962 8.14 11.558 8.14 18.553-0.005 14.533-12.56 26.33-27.983 26.33z" fill="#2C2C2C" p-id="1839"></path></svg>